HIERARCHY
ROOT Hips
{
	OFFSET 0.000000 0.000000 0.000000
	CHANNELS 6 Xposition Yposition Zposition Zrotation Yrotation Xrotation 
	JOINT LHipJoint
	{
		OFFSET 0.000000 0.000000 0.000000
		CHANNELS 3 Zrotation Yrotation Xrotation
		JOINT LeftUpLeg
		{
			OFFSET 1.363060 -1.794630 0.839290
			CHANNELS 3 Zrotation Yrotation Xrotation
			JOINT LeftLeg
			{
				OFFSET 2.448110 -6.726130 0.000000
				CHANNELS 3 Zrotation Yrotation Xrotation
				JOINT LeftFoot
				{
					OFFSET 2.562200 -7.039590 0.000000
					CHANNELS 3 Zrotation Yrotation Xrotation
					JOINT LeftToeBase
					{
						OFFSET 0.157640 -0.433110 2.322550
						CHANNELS 3 Zrotation Yrotation Xrotation
						End Site
						{
							OFFSET 0.000000 0.000000 0.000000
						}
					}
				}
			}
		}
	}
	JOINT RHipJoint
	{
		OFFSET 0.000000 0.000000 0.000000
		CHANNELS 3 Zrotation Yrotation Xrotation
		JOINT RightUpLeg
		{
			OFFSET -1.305520 -1.794630 0.839290
			CHANNELS 3 Zrotation Yrotation Xrotation
			JOINT RightLeg
			{
				OFFSET -2.542530 -6.985550 0.000000
				CHANNELS 3 Zrotation Yrotation Xrotation
				JOINT RightFoot
				{
					OFFSET -2.568260 -7.056230 0.000000
					CHANNELS 3 Zrotation Yrotation Xrotation
					JOINT RightToeBase
					{
						OFFSET -0.164730 -0.452590 2.363150
						CHANNELS 3 Zrotation Yrotation Xrotation
						End Site
						{
							OFFSET 0.000000 0.000000 0.000000
						}
					}
				}
			}
		}
	}
	JOINT LowerBack
	{
		OFFSET 0.000000 0.000000 0.000000
		CHANNELS 3 Zrotation Yrotation Xrotation
		JOINT Spine
		{
			OFFSET 0.028270 2.035590 -0.193380
			CHANNELS 3 Zrotation Yrotation Xrotation
			JOINT Spine1
			{
				OFFSET 0.056720 2.048850 -0.042750
				CHANNELS 3 Zrotation Yrotation Xrotation
				JOINT Neck
				{
					OFFSET 0.000000 0.000000 0.000000
					CHANNELS 3 Zrotation Yrotation Xrotation
					JOINT Neck1
					{
						OFFSET -0.054170 1.746240 0.172020
						CHANNELS 3 Zrotation Yrotation Xrotation
						JOINT Head
						{
							OFFSET 0.104070 1.761360 -0.123970
							CHANNELS 3 Zrotation Yrotation Xrotation
							End Site
							{
								OFFSET 0.000000 0.000000 0.000000
							}
						}
					}
				}
				JOINT LeftShoulder
				{
					OFFSET 0.000000 0.000000 0.000000
					CHANNELS 3 Zrotation Yrotation Xrotation
					JOINT LeftArm
					{
						OFFSET 3.362410 1.200890 -0.311210
						CHANNELS 3 Zrotation Yrotation Xrotation
						JOINT LeftForeArm
						{
							OFFSET 4.983000 -0.000000 -0.000000
							CHANNELS 3 Zrotation Yrotation Xrotation
							JOINT LeftHand
							{
								OFFSET 3.483560 -0.000000 -0.000000
								CHANNELS 3 Zrotation Yrotation Xrotation
								JOINT LeftFingerBase
								{
									OFFSET 0.000000 0.000000 0.000000
									CHANNELS 3 Zrotation Yrotation Xrotation
									JOINT LeftHandIndex1
									{
										OFFSET 0.715260 -0.000000 -0.000000
										CHANNELS 3 Zrotation Yrotation Xrotation
										End Site
										{
											OFFSET 0.000000 0.000000 0.000000
										}
									}
								}
								JOINT LThumb
								{
									OFFSET 0.000000 0.000000 0.000000
									CHANNELS 3 Zrotation Yrotation Xrotation
									End Site
									{
										OFFSET 0.000000 0.000000 0.000000
									}
								}
							}
						}
					}
				}
				JOINT RightShoulder
				{
					OFFSET 0.000000 0.000000 0.000000
					CHANNELS 3 Zrotation Yrotation Xrotation
					JOINT RightArm
					{
						OFFSET -3.136600 1.374050 -0.404650
						CHANNELS 3 Zrotation Yrotation Xrotation
						JOINT RightForeArm
						{
							OFFSET -5.241900 -0.000000 -0.000000
							CHANNELS 3 Zrotation Yrotation Xrotation
							JOINT RightHand
							{
								OFFSET -3.444170 -0.000000 -0.000000
								CHANNELS 3 Zrotation Yrotation Xrotation
								JOINT RightFingerBase
								{
									OFFSET 0.000000 0.000000 0.000000
									CHANNELS 3 Zrotation Yrotation Xrotation
									JOINT RightHandIndex1
									{
										OFFSET -0.622530 -0.000000 -0.000000
										CHANNELS 3 Zrotation Yrotation Xrotation
										End Site
										{
											OFFSET 0.000000 0.000000 0.000000
										}
									}
								}
								JOINT RThumb
								{
									OFFSET 0.000000 0.000000 0.000000
									CHANNELS 3 Zrotation Yrotation Xrotation
									End Site
									{
										OFFSET 0.000000 0.000000 0.000000
									}
								}
							}
						}
					}
				}
			}
		}
	}
}
MOTION
Frames: 4
Frame Time: 0.008333
24.736066 17.889274 33.514300 179.706106 -0.506011 -152.369871 9.831412 1.507918 -1.773563 -24.988970 -18.481684 -18.520045 -0.935693 4.540819 9.908031 -0.091851 -6.285985 -15.820513 2.477700 -9.797300 -28.322900 -14.088638 -3.399703 -1.644579 33.533163 15.727341 -15.636366 1.257505 -3.002467 6.591587 -1.159498 -2.507744 -21.613907 -3.592700 11.597700 -34.323300 -3.942960 0.509786 -27.094639 1.343799 0.081760 -5.430743 0.316249 -0.912214 14.240990 -12.227081 1.169331 0.198729 18.074047 -3.046939 8.897496 4.854900 -1.399900 -0.084500 16.035320 -2.815242 0.490599 -104.791561 -7.100949 21.415561 13.547829 -15.889895 -2.391541 -1.657617 0.460940 3.125111 20.350778 -8.442627 -3.522700 -7.125000 0.000000 0.000000 -3.504000 20.559100 2.054100 -11.175087 -1.059979 -0.012443 100.701900 -2.387431 5.608788 -12.817932 22.894614 -3.361556 0.429301 3.993910 -0.606065 -10.234450 -52.347209 8.940800 7.125000 0.000000 0.000000 80.057500 -75.851200 -65.389700 
24.734210 17.884470 33.514081 179.922309 -0.707231 -152.422059 9.824927 1.511693 -1.771691 -24.741465 -18.433463 -18.501184 -0.929403 4.542176 9.931986 -0.111700 -6.337152 -15.679677 2.413300 -9.678500 -27.941900 -14.092957 -3.427147 -1.652164 33.883707 15.528503 -15.579872 1.258093 -2.992808 6.586304 -1.160483 -2.429518 -21.594935 -3.564800 11.557600 -34.184300 -3.627625 0.521704 -27.038378 1.389621 -0.030739 -5.444974 0.247549 -0.936713 14.187465 -12.063839 1.210916 0.420968 17.834930 -2.976026 8.768871 4.730600 -1.374900 -0.192300 16.089948 -2.806072 0.482478 -104.900285 -6.918174 21.533281 13.878178 -16.420703 -2.537269 -1.727170 0.469917 2.959093 21.140050 -8.817499 -3.831000 -7.125000 0.000000 0.000000 -2.897000 20.093200 1.727600 -11.181713 -1.065098 -0.002354 100.632048 -2.426350 5.596018 -12.751653 22.805438 -3.336824 0.467716 3.931731 -0.592947 -10.634727 -51.136451 9.170000 7.125000 0.000000 0.000000 74.896800 -75.863100 -60.404900 
24.735630 17.886872 33.511352 179.669384 -0.504077 -152.350084 9.836209 1.515119 -1.784679 -25.101072 -18.291549 -18.585399 -0.927062 4.556465 9.947891 -0.117545 -6.261760 -15.508388 2.357300 -9.573600 -27.606700 -14.097062 -3.393132 -1.634419 33.468781 15.833182 -15.663198 1.257835 -3.022464 6.629507 -1.160891 -2.535242 -21.641700 -3.441800 11.378000 -33.565500 -3.961087 0.432916 -27.240001 1.373190 -0.009212 -5.416755 0.410001 -0.963744 14.362430 -12.366003 1.399582 -0.086862 18.190613 -2.737487 9.262065 4.922200 -1.213300 0.074400 16.109567 -2.782277 0.470820 -104.994554 -7.000872 21.733317 14.072661 -16.722125 -2.624245 -1.747338 0.449212 2.623945 21.368756 -8.885344 -3.899200 -7.125000 0.000000 0.000000 -2.722500 20.017200 1.627900 -11.174347 -1.039832 0.002265 100.550022 -2.333616 5.570878 -12.710681 22.745558 -3.320267 0.509343 3.899464 -0.540904 -11.161817 -50.411144 9.549600 7.125000 0.000000 0.000000 71.728400 -75.933300 -57.481300 
24.737486 17.885998 33.514518 179.625138 -0.475476 -152.279018 9.843067 1.511780 -1.791517 -25.160054 -18.209527 -18.712216 -0.924922 4.579177 9.984789 -0.123615 -6.237538 -15.415829 2.391900 -9.638700 -27.814600 -14.102634 -3.375977 -1.616164 33.396174 15.982606 -15.764169 1.259060 -3.062987 6.697863 -1.163487 -2.575240 -21.699180 -3.397000 11.311600 -33.338000 -4.020374 0.422476 -27.245077 1.364640 -0.009294 -5.437955 0.435942 -0.970675 14.280006 -12.366914 1.292955 0.064027 18.078680 -2.897992 9.485512 4.877200 -1.280300 0.124700 16.131089 -2.779059 0.459327 -105.018853 -6.984076 22.145903 14.255868 -16.989670 -2.702387 -1.763325 0.336274 2.113488 21.500696 -8.161996 -3.578800 -7.125000 0.000000 0.000000 -2.597700 20.893700 1.502000 -11.186041 -1.024333 0.010006 100.591089 -2.407020 5.422470 -12.698125 22.730346 -3.318291 0.551290 3.862279 -0.476795 -11.661029 -49.705717 9.898300 7.125000 0.000000 0.000000 68.604500 -75.960400 -54.600800 
